<?xml version="1.0" encoding="utf-8"?>
<!-- Generator: Adobe Illustrator 21.0.0, SVG Export Plug-In . SVG Version: 6.00 Build 0)  -->
<svg version="1.1" id="Layer_1" xmlns="http://www.w3.org/2000/svg" xmlns:xlink="http://www.w3.org/1999/xlink" x="0px" y="0px"
	 viewBox="0 0 1920 1080" style="enable-background:new 0 0 1920 1080;" xml:space="preserve">
<style type="text/css">
	.st0{fill:#35548C;}
	.st1{fill:#4282A7;}
	.st2{fill:#56A28A;}
	.st3{fill:#66BA6A;}
	.st4{fill:#A0D145;}
	.st5{fill:#E6EE3A;}
	.st6{fill:#F3AD50;}
	.st7{fill:#E86882;}
	.st8{fill:#C74D95;}
	.st9{fill:#A24BA1;}
</style>
<polygon class="st0" points="1920,0 1920,1080 1706.7,1080 1706.7,0 "/>
<polygon class="st1" points="1920,1080 1493.3,1080 1493.3,0 1706.7,0 "/>
<polygon class="st2" points="1706.7,1080 1280,1080 1280,0 1493.3,0 "/>
<polygon class="st3" points="1493.3,1080 1066.7,1080 1066.7,0 1280,0 "/>
<polygon class="st4" points="1280,1080 853.3,1080 853.3,0 1066.7,0 "/>
<polygon class="st5" points="1066.7,1080 640,1080 640,0 853.3,0 "/>
<polygon class="st6" points="853.3,1080 426.7,1080 426.7,0 640,0 "/>
<polygon class="st7" points="640,1080 213.3,1080 213.3,0 426.7,0 "/>
<polygon class="st8" points="426.7,1080 0,1080 0,0 213.3,0 "/>
<polygon class="st9" points="0,0 213.3,1080 0,1080 "/>
</svg>
