<?xml version="1.0" encoding="UTF-8" standalone="no"?>
<svg
   xmlns:dc="http://purl.org/dc/elements/1.1/"
   xmlns:cc="http://creativecommons.org/ns#"
   xmlns:rdf="http://www.w3.org/1999/02/22-rdf-syntax-ns#"
   xmlns:svg="http://www.w3.org/2000/svg"
   xmlns="http://www.w3.org/2000/svg"
   xmlns:sodipodi="http://sodipodi.sourceforge.net/DTD/sodipodi-0.dtd"
   xmlns:inkscape="http://www.inkscape.org/namespaces/inkscape"
   inkscape:version="1.0 (4035a4fb49, 2020-05-01)"
   sodipodi:docname="slanted_colors.svg"
   xml:space="preserve"
   style="enable-background:new 0 0 1920 1080;"
   viewBox="0 0 1920 1080"
   y="0px"
   x="0px"
   id="Layer_1"
   version="1.1"><metadata
   id="metadata29"><rdf:RDF><cc:Work
       rdf:about=""><dc:format>image/svg+xml</dc:format><dc:type
         rdf:resource="http://purl.org/dc/dcmitype/StillImage" /></cc:Work></rdf:RDF></metadata><defs
   id="defs27" /><sodipodi:namedview
   inkscape:current-layer="Layer_1"
   inkscape:window-maximized="1"
   inkscape:window-y="0"
   inkscape:window-x="0"
   inkscape:cy="213.1335"
   inkscape:cx="730.47476"
   inkscape:zoom="0.67291667"
   showgrid="false"
   id="namedview25"
   inkscape:window-height="1016"
   inkscape:window-width="1920"
   inkscape:pageshadow="2"
   inkscape:pageopacity="0"
   guidetolerance="10"
   gridtolerance="10"
   objecttolerance="10"
   borderopacity="1"
   bordercolor="#666666"
   pagecolor="#ffffff"
   inkscape:document-rotation="0" />
<style
   id="style2"
   type="text/css">
	.st0{fill:#35548C;}
	.st1{fill:#4282A7;}
	.st2{fill:#56A28A;}
	.st3{fill:#66BA6A;}
	.st4{fill:#A0D145;}
	.st5{fill:#E6EE3A;}
	.st6{fill:#F3AD50;}
	.st7{fill:#E86882;}
	.st8{fill:#C74D95;}
	.st9{fill:#A24BA1;}
</style>










<rect
   style="fill:#35548c;fill-opacity:1;stroke-width:1.40465"
   id="rect18"
   width="1919.7446"
   height="1070.6335"
   x="0.12769599"
   y="13.081798" /><g
   transform="matrix(0,0.17098238,-1.7775413,0,1919.8723,136.4961)"
   id="g176"><polygon
     class="st0"
     points="1706.7,1080 1706.7,0 1920,0 1920,1080 "
     id="polygon156" /><polygon
     class="st1"
     points="1493.3,0 1706.7,0 1920,1080 1493.3,1080 "
     id="polygon158" /><polygon
     class="st2"
     points="1280,0 1493.3,0 1706.7,1080 1280,1080 "
     id="polygon160" /><polygon
     class="st3"
     points="1066.7,0 1280,0 1493.3,1080 1066.7,1080 "
     id="polygon162" /><polygon
     class="st4"
     points="853.3,0 1066.7,0 1280,1080 853.3,1080 "
     id="polygon164" /><polygon
     class="st5"
     points="640,0 853.3,0 1066.7,1080 640,1080 "
     id="polygon166" /><polygon
     class="st6"
     points="426.7,0 640,0 853.3,1080 426.7,1080 "
     id="polygon168" /><polygon
     class="st7"
     points="213.3,0 426.7,0 640,1080 213.3,1080 "
     id="polygon170" /><polygon
     class="st8"
     points="0,0 213.3,0 426.7,1080 0,1080 "
     id="polygon172" /><polygon
     class="st9"
     points="0,0 213.3,1080 0,1080 "
     id="polygon174" /></g><rect
   y="-1.4930975"
   x="0.12769599"
   height="139.38266"
   width="1919.9347"
   id="rect178"
   style="fill:#a24ba1;fill-opacity:1;stroke-width:1.98436" /></svg>
